PathFileType	4	(X/Y/Z)	C:/Users/beibeiliu/ov580/test_trc/User1\sequence.25_training_dense_left.trc
DataRate	CameraRate	NumFrames	NumMarkers	Units	OrigDataRate	OrigDataStartFrame	OrigNumFrames
120	120	13	19	mm	120	152	242
Frame#	Time	ThumbCMC			ThumbMCP			ThumbIP			ThumbTip			IndexMCP			IndexPIP			IndexTip			MiddleMCP			MiddlePIP			MiddleTip			RingMCP			RingPIP			RingTip			PinkyMCP			PinkyPIP			PinkyTip			BackHand1			BackHand2			BackHand3	
		X0	Y0	Z0	X1	Y1	Z1	X2	Y2	Z2	X3	Y3	Z3	X4	Y4	Z4	X5	Y5	Z5	X6	Y6	Z6	X7	Y7	Z7	X8	Y8	Z8	X9	Y9	Z9	X10	Y10	Z10	X11	Y11	Z11	X12	Y12	Z12	X13	Y13	Z13	X14	Y14	Z14	X15	Y15	Z15	X16	Y16	Z16	X17	Y17	Z17	X18	Y18	Z18	
151	1.25833	-155.946	-3.94842	26.3205	-144.683	-13.8218	-9.38882	-130.817	-40.3585	-26.1917	-110.356	-57.2081	-9.72103	-179.653	-63.3575	-22.419	-184.819	-78.7838	-41.1591	-188.681	-100.91	-57.5614	-152.094	-76.488	-32.9674	-144.253	-78.1029	-62.6446	-132.096	-76.3941	-92.5031	-121.711	-70.5869	-30.2633	-102.125	-45.0057	-37.6467	-94.8969	-24.0151	-17.6069	-106.298	-74.2908	-12.8885	-91.973	-49.8029	-18.5157	-95.6854	-25.9886	1.01774	-141.596	-75.9893	33.4233	-136.31	-59.058	66.0645	-164.357	-45.5583	40.0632	
152	1.26667	-156.503	-3.45613	27.9078	-146.762	-8.16433	-9.90795	-135.149	-34.8583	-26.1296	-113.834	-56.5063	-14.3715	-186.129	-61.0246	-24.0426	-193.003	-75.4764	-41.847	-196.316	-95.3799	-54.6988	-158.183	-74.9438	-34.9854	-153.031	-74.441	-62.808	-140.02	-75.4243	-90.6586	-129.465	-70.0929	-28.509	-107.37	-47.0542	-39.8862	-98.196	-22.0881	-15.5232	-107.592	-75.9966	-12.7497	-99.3022	-48.2024	-19.9793	-102.187	-25.6896	0.786438	-143.901	-71.6651	34.9315	-141.669	-56.0821	66.2194	-166.43	-42.0205	43.35	
153	1.275	-156.594	-2.82837	29.7912	-150.438	-6.76826	-11.9043	-138.746	-34.5386	-22.8233	-118.233	-53.7237	-16.1202	-186.864	-58.901	-19.534	-199.347	-75.0643	-40.319	-202.803	-96.3361	-54.6763	-165.848	-71.6336	-37.9807	-157.916	-73.8893	-62.6445	-149.121	-71.208	-92.6071	-131.644	-71.3553	-27.511	-109.952	-43.8594	-41.1946	-102.893	-22.0081	-21.4829	-115.7	-72.9149	-13.753	-100.249	-47.1143	-20.7523	-103.589	-24.7249	-1.56164	-146.653	-72.9214	31.5018	-140.921	-55.9595	67.684	-168.924	-39.8482	45.4096	
154	1.28333	-157.307	-1.10593	30.4965	-152.411	-6.17695	-12.7229	-141.281	-35.8877	-27.1288	-123.178	-53.4255	-12.4471	-195.877	-56.4444	-21.4889	-201.01	-72.8294	-37.1007	-207.786	-90.2647	-51.7611	-168.567	-70.6267	-34.666	-165.766	-69.3568	-62.9672	-155.068	-68.2553	-94.9541	-140.324	-66.6291	-28.0387	-113.005	-43.2899	-40.6791	-104.011	-21.8867	-20.0428	-118.526	-74.6985	-13.3288	-107.6	-46.7712	-23.6583	-105.557	-26.1437	-4.21813	-151.554	-68.0988	33.3619	-141.764	-53.8207	67.5679	-171.46	-36.3974	42.2195	
155	1.29167	-156.252	3.32638	32.9991	-152.579	-6.78088	-8.04981	-143.902	-31.8332	-25.3975	-124.382	-56.9535	-13.7852	-198.283	-48.6495	-18.3638	-209.254	-65.736	-36.3995	-216.072	-85.4143	-51.9133	-175.342	-66.3323	-33.6667	-171.116	-65.1201	-66.0564	-160.953	-66.4971	-92.5571	-144.133	-64.2174	-29.6919	-118.109	-45.074	-43.0384	-106.898	-20.8664	-21.3107	-123.304	-70.7234	-17.2456	-108.058	-47.9961	-23.7053	-107.581	-23.8964	-4.16634	-155.613	-65.9868	33.7317	-146.035	-51.8599	68.5918	-171.266	-35.7082	47.2826	
156	1.3	-157.38	4.35701	31.0924	-153.209	-3.13216	-7.2876	-146.246	-30.4287	-26.7733	-125.436	-54.4808	-18.352	-198.696	-50.1065	-18.304	-209.137	-63.4284	-34.2043	-218.231	-80.4154	-51.4778	-177.842	-65.3944	-35.4623	-175.028	-64.7182	-62.5207	-164.998	-65.3239	-93.783	-143.241	-65.0835	-31.8741	-123.07	-39.7134	-43.5466	-108.075	-20.3492	-20.6324	-129.169	-70.2954	-13.8882	-113.501	-47.9982	-24.5299	-107.07	-23.717	-2.52491	-156.301	-64.8431	32.1529	-147.442	-50.4338	65.1648	-172.514	-34.4833	43.5497	
157	1.30833	-154.2	10.5588	33.9537	-148.965	3.21754	-6.78585	-145.166	-26.3145	-26.4126	-128.955	-50.7245	-14.3773	-202.079	-39.1802	-16.5263	-211.224	-54.0325	-33.5088	-223.422	-72.1293	-52.5332	-180.535	-60.1126	-30.6893	-179.725	-58.4927	-62.8221	-167.621	-60.5431	-95.5492	-145.256	-63.2013	-29.6116	-123.875	-40.3334	-42.6356	-107.677	-20.9142	-18.9934	-129.11	-69.6154	-16.2496	-113.806	-46.5919	-23.7218	-113.494	-25.0749	0.457941	-157.686	-64.5641	32.1705	-147.168	-51.3334	66.0171	-173.641	-25.643	46.2264	
158	1.31667	-150.467	8.84461	33.8261	-147.537	3.91503	-8.1512	-143.724	-21.3563	-22.3353	-130.067	-48.258	-17.4559	-201.768	-35.0896	-16.3766	-213.897	-47.6673	-33.9433	-224.24	-64.1652	-50.9868	-185.176	-52.7195	-35.2404	-182.936	-53.4907	-59.5132	-171.899	-55.7738	-91.1287	-147.48	-59.2905	-33.0632	-124.468	-38.992	-43.2305	-106.256	-23.7291	-21.781	-130.47	-68.7703	-17.0588	-111.391	-48.9606	-22.3903	-110.059	-26.7605	4.72084	-159.027	-58.9449	34.5842	-148.498	-51.0315	67.1822	-173.795	-23.5618	46.2873	
159	1.325	-144.656	12.6035	36.2752	-144.228	5.99399	-7.80256	-144.403	-21.8455	-24.7303	-131.574	-49.1347	-16.1904	-200.366	-22.7863	-15.352	-217.032	-38.6553	-35.4409	-224.427	-54.0411	-50.6827	-185.148	-48.1318	-31.2214	-182.706	-49.7065	-62.3751	-174.546	-49.1935	-93.4116	-150.067	-57.5719	-29.9488	-124.967	-37.4952	-43.2238	-106.926	-22.6184	-19.5644	-135.235	-65.9742	-16.472	-115.252	-46.3421	-20.9387	-110.126	-24.8507	0.957133	-162.817	-57.5779	35.0744	-152.09	-50.14	66.0743	-171.92	-22.5633	45.7083	
160	1.33333	-139.797	12.3225	38.1508	-139.523	9.0794	-4.85134	-141.536	-17.5016	-25.4691	-133.071	-50.3647	-15.5418	-199.64	-20.3754	-15.3791	-214.39	-28.7674	-32.704	-229.635	-44.0132	-52.1068	-187.007	-39.5477	-34.6077	-184.383	-40.8007	-62.8461	-176.186	-44.4257	-96.1703	-154.357	-52.7716	-28.7752	-120.351	-39.1326	-41.6901	-104.929	-25.8583	-20.3095	-137.043	-66.4467	-14.8412	-111.475	-45.8725	-19.5782	-109.87	-24.6642	5.49102	-168.089	-50.9996	30.7737	-153.285	-43.5535	65.1666	-171.478	-14.9572	48.1742	
161	1.34167	-136.526	13.1082	38.3831	-134.495	11.6943	-6.7209	-140.451	-16.2424	-24.0539	-135.22	-47.9423	-17.3223	-197.628	-8.51248	-15.0014	-213.122	-17.2351	-31.8758	-229.198	-34.4406	-52.5337	-186.292	-34.0384	-30.911	-185.28	-36.4922	-61.8559	-179.689	-38.9465	-93.2495	-154.639	-50.5455	-31.9988	-125.936	-36.7668	-42.6908	-103.41	-26.5593	-17.8723	-141.803	-64.6422	-14.5441	-118.083	-47.5436	-21.9768	-105.342	-29.3331	2.01292	-168.792	-48.7438	29.9633	-154.957	-46.8944	63.1818	-169.644	-15.3866	46.1495	
162	1.35	-133.127	12.7275	38.3214	-131.27	11.6453	-5.34827	-136.824	-11.1387	-25.3577	-137.094	-42.2888	-18.9021	-195.736	0.486291	-14.6691	-214.326	-11.0869	-34.7494	-230.407	-21.1553	-53.3734	-187.966	-25.5234	-35.284	-186.764	-23.6742	-65.5692	-181.4	-26.7652	-94.2923	-155.617	-42.6304	-34.2463	-125.94	-37.7561	-42.4846	-103.673	-29.0502	-20.8192	-144.469	-61.6288	-18.9722	-117.069	-49.7833	-22.6067	-105.571	-28.8086	3.78438	-170.988	-44.1044	30.8786	-158.933	-42.5341	62.2464	-167.341	-5.81711	47.9072	
163	1.35833	-128.654	13.6905	38.4802	-124.3	12.0477	-1.48527	-137.448	-12.2447	-25.6895	-138.04	-41.8788	-20.5091	-191.182	6.98309	-15.2911	-210.593	-0.393549	-34.252	-225.91	-7.71182	-51.6199	-186.7	-15.9303	-34.8774	-185.14	-19.0342	-61.7034	-180.226	-18.3754	-92.6069	-160.063	-40.8583	-31.0269	-129.57	-36.6001	-44.202	-104.153	-28.4225	-21.1071	-150.211	-57.2508	-17.0591	-122.574	-48.5178	-23.1786	-108.078	-33.4508	-1.16478	-174.863	-39.9738	31.9473	-160.484	-37.1926	64.7065	-163.8	-2.50223	48.9396	
